<svg xmlns="http://www.w3.org/2000/svg" width="1280" height="360" viewBox="0 0 1280 360" role="img" aria-labelledby="title desc" preserveAspectRatio="xMidYMid meet">
  <title id="title">Juan Cardesa profile header</title>
  <desc id="desc">Light engineering-themed banner with Juan Cardesa's name, backend and application security tagline, and an abstract API analysis flow.</desc>
  <defs>
    <linearGradient id="bg" x1="0" y1="0" x2="1280" y2="360" gradientUnits="userSpaceOnUse">
      <stop stop-color="#F7FBFF"/>
      <stop offset="1" stop-color="#EAF6FC"/>
    </linearGradient>
    <radialGradient id="glow" cx="0" cy="0" r="1" gradientTransform="translate(1024 176) rotate(180) scale(370 260)" gradientUnits="userSpaceOnUse">
      <stop stop-color="#0EA5E9" stop-opacity="0.12"/>
      <stop offset="1" stop-color="#0EA5E9" stop-opacity="0"/>
    </radialGradient>
    <pattern id="grid" width="32" height="32" patternUnits="userSpaceOnUse">
      <path d="M32 0H0V32" fill="none" stroke="#0369A1" stroke-opacity="0.065"/>
    </pattern>
  </defs>

  <rect width="1280" height="360" rx="24" fill="url(#bg)"/>
  <rect width="1280" height="360" rx="24" fill="url(#grid)"/>
  <rect width="1280" height="360" rx="24" fill="url(#glow)"/>
  <rect x="0.5" y="0.5" width="1279" height="359" rx="23.5" fill="none" stroke="#B8D8E8"/>
  <path d="M0 24C0 10.745 10.745 0 24 0h1232c13.255 0 24 10.745 24 24v5H0z" fill="#E4F2F9"/>
  <circle cx="25" cy="14.5" r="4" fill="#D97706"/>
  <circle cx="40" cy="14.5" r="4" fill="#0284C7" fill-opacity="0.6"/>
  <circle cx="55" cy="14.5" r="4" fill="#0891B2" fill-opacity="0.4"/>
  <text x="80" y="18.5" fill="#58758A" font-family="ui-monospace, SFMono-Regular, Menlo, Consolas, monospace" font-size="10" letter-spacing="1.8">SECURE WORKSHOP / PROFILE</text>

  <text x="72" y="92" fill="#0369A1" font-family="ui-monospace, SFMono-Regular, Menlo, Consolas, monospace" font-size="13" font-weight="600" letter-spacing="2.2">BACKEND + APPLICATION SECURITY</text>
  <rect x="72" y="110" width="48" height="3" rx="1.5" fill="#D97706"/>
  <text x="72" y="174" fill="#0B1728" font-family="system-ui, -apple-system, BlinkMacSystemFont, Segoe UI, sans-serif" font-size="62" font-weight="700" letter-spacing="-1.8">Juan Cardesa</text>
  <text x="72" y="218" fill="#3E5A70" font-family="system-ui, -apple-system, BlinkMacSystemFont, Segoe UI, sans-serif" font-size="25" font-weight="450">Backend engineering with a security mindset.</text>

  <g font-family="ui-monospace, SFMono-Regular, Menlo, Consolas, monospace" font-size="11" letter-spacing="0.7">
    <rect x="72" y="259" width="160" height="34" rx="8" fill="#E7F4FA" stroke="#76B5D1"/>
    <circle cx="91" cy="276" r="4" fill="#0284C7"/>
    <text x="105" y="280" fill="#164E68">PYTHON / FASTAPI</text>
    <rect x="244" y="259" width="165" height="34" rx="8" fill="#E7F4FA" stroke="#76B5D1"/>
    <circle cx="263" cy="276" r="4" fill="#0891B2"/>
    <text x="277" y="280" fill="#164E68">JAVA / SPRING</text>
    <rect x="421" y="259" width="206" height="34" rx="8" fill="#E7F4FA" stroke="#76B5D1"/>
    <circle cx="440" cy="276" r="4" fill="#D97706"/>
    <text x="454" y="280" fill="#164E68">DEFENSIVE SECURITY</text>
  </g>

  <g transform="translate(760 64)">
    <rect width="448" height="236" rx="16" fill="#F8FCFE" fill-opacity="0.92" stroke="#8DBDD3"/>
    <path d="M0 42h448" stroke="#B8D8E8"/>
    <circle cx="20" cy="21" r="4" fill="#0891B2"/>
    <text x="34" y="25" fill="#58758A" font-family="ui-monospace, SFMono-Regular, Menlo, Consolas, monospace" font-size="11">trace / defensive-analysis</text>
    <text x="383" y="25" fill="#B45309" font-family="ui-monospace, SFMono-Regular, Menlo, Consolas, monospace" font-size="10">ACTIVE</text>

    <g font-family="ui-monospace, SFMono-Regular, Menlo, Consolas, monospace">
      <rect x="28" y="67" width="134" height="46" rx="9" fill="#E8F5FA" stroke="#3694BA"/>
      <text x="46" y="86" fill="#0369A1" font-size="10">POST</text>
      <text x="46" y="101" fill="#17364A" font-size="12">/analyze</text>

      <path d="M162 90h54" stroke="#0284C7" stroke-width="1.5"/>
      <path d="m209 84 8 6-8 6" fill="none" stroke="#0284C7" stroke-width="1.5"/>

      <rect x="218" y="67" width="94" height="46" rx="9" fill="#E8F5FA" stroke="#3694BA"/>
      <text x="237" y="86" fill="#58758A" font-size="10">SCAN</text>
      <text x="237" y="101" fill="#17364A" font-size="11">patterns</text>

      <path d="M312 90h42" stroke="#0891B2" stroke-width="1.5"/>
      <path d="m347 84 8 6-8 6" fill="none" stroke="#0891B2" stroke-width="1.5"/>

      <rect x="356" y="67" width="64" height="46" rx="9" fill="#E5F7F3" stroke="#0891B2"/>
      <text x="370" y="86" fill="#0F766E" font-size="10">SAFE</text>
      <text x="370" y="101" fill="#17364A" font-size="11">output</text>

      <path d="M95 113v44h125" fill="none" stroke="#8DBDD3"/>
      <circle cx="95" cy="157" r="3" fill="#0284C7"/>
      <path d="M388 113v44H267" fill="none" stroke="#8DBDD3"/>
      <circle cx="388" cy="157" r="3" fill="#0891B2"/>

      <rect x="28" y="176" width="392" height="35" rx="8" fill="#EDF7FB" stroke="#B8D8E8"/>
      <text x="45" y="198" fill="#58758A" font-size="11">01</text>
      <text x="77" y="198" fill="#164E68" font-size="11">detect</text>
      <text x="151" y="198" fill="#58758A" font-size="11">→</text>
      <text x="174" y="198" fill="#164E68" font-size="11">redact</text>
      <text x="248" y="198" fill="#58758A" font-size="11">→</text>
      <text x="271" y="198" fill="#164E68" font-size="11">explain</text>
      <circle cx="393" cy="193.5" r="4" fill="#D97706"/>
    </g>
  </g>

  <text x="72" y="331" fill="#58758A" font-family="ui-monospace, SFMono-Regular, Menlo, Consolas, monospace" font-size="11" letter-spacing="1">SEVILLE, SPAIN  /  BUILD • TEST • HARDEN</text>
</svg>
